<?xml version="1.0" standalone="no"?>
<!DOCTYPE svg PUBLIC "-//W3C//DTD SVG 20010904//EN"
 "http://www.w3.org/TR/2001/REC-SVG-20010904/DTD/svg10.dtd">
<svg version="1.0" xmlns="http://www.w3.org/2000/svg"
 width="1080.000000pt" height="1350.000000pt" viewBox="0 0 1080.000000 1350.000000"
 preserveAspectRatio="xMidYMid meet">

<g transform="translate(0.000000,1350.000000) scale(0.100000,-0.100000)"
fill="#000000" stroke="none">
<path d="M5023 11693 c-39 -4 -43 -7 -43 -31 0 -43 50 -744 56 -781 l5 -34 56
6 c30 3 58 8 61 12 3 3 -7 191 -24 418 -33 463 -20 418 -111 410z"/>
<path d="M5536 11364 c-15 -168 -25 -308 -22 -311 11 -11 282 -34 351 -30 127
7 228 73 277 182 32 71 32 191 0 256 -39 79 -118 144 -207 171 -32 9 -287 38
-339 38 l-31 0 -29 -306z m282 166 c87 -11 138 -37 172 -87 21 -31 25 -48 25
-108 0 -61 -4 -78 -27 -112 -17 -25 -44 -49 -73 -63 -43 -21 -56 -22 -142 -16
-53 4 -99 8 -103 11 -3 2 2 86 11 187 10 101 18 186 19 191 0 9 28 9 118 -3z"/>
<path d="M6332 11617 c-49 -52 -8 -127 68 -127 51 0 80 27 80 74 0 69 -100
104 -148 53z"/>
<path d="M4552 11444 c-29 -14 -57 -35 -63 -45 -14 -27 -29 -23 -29 7 0 18 -4
25 -14 21 -7 -3 -35 -9 -61 -12 -25 -4 -49 -14 -52 -21 -5 -13 82 -452 91
-462 4 -4 84 11 122 23 8 2 5 37 -12 117 -27 133 -29 169 -9 207 14 28 68 61
99 61 9 0 16 4 16 8 0 24 -24 122 -29 122 -4 0 -31 -12 -59 -26z"/>
<path d="M6247 11198 c-26 -127 -45 -233 -43 -235 6 -6 126 -27 130 -22 5 5
96 438 96 456 0 11 -80 33 -118 33 -14 0 -25 -39 -65 -232z"/>
<path d="M7257 11340 c-27 -21 -35 -58 -21 -95 8 -21 56 -45 89 -45 33 0 75
41 75 74 0 65 -91 107 -143 66z"/>
<path d="M6628 11329 c-49 -14 -117 -74 -139 -123 -37 -82 -20 -197 39 -260
59 -62 194 -97 254 -65 18 10 19 8 13 -13 -11 -33 -35 -67 -56 -78 -52 -29
-174 6 -235 67 l-30 30 -42 -37 -42 -38 26 -31 c14 -17 64 -50 110 -73 72 -35
95 -42 162 -45 66 -4 83 -1 122 19 76 39 98 81 174 322 38 120 65 221 60 225
-8 7 -100 41 -111 41 -2 0 -8 -12 -13 -26 l-10 -26 -23 33 c-43 64 -171 102
-259 78z m177 -139 c62 -38 72 -126 19 -181 -34 -36 -81 -44 -133 -23 -57 22
-81 56 -81 111 0 38 5 50 34 79 29 29 41 34 81 34 30 0 60 -7 80 -20z"/>
<path d="M4003 11320 c-193 -39 -277 -249 -160 -401 64 -84 184 -112 308 -72
53 17 149 95 149 121 0 6 -19 22 -42 36 l-43 25 -30 -29 c-35 -34 -93 -60
-133 -60 -31 0 -96 38 -95 55 1 9 43 24 240 85 l101 32 -9 30 c-25 89 -95 158
-179 177 -51 12 -50 12 -107 1z m120 -139 l30 -29 -103 -32 c-57 -18 -109 -34
-117 -37 -22 -8 -16 51 9 82 48 61 129 68 181 16z"/>
<path d="M7181 11148 c-5 -13 -46 -108 -90 -212 -45 -104 -81 -195 -81 -201 0
-12 90 -55 114 -55 6 0 53 98 103 218 l92 217 -57 27 c-70 33 -70 33 -81 6z"/>
<path d="M7485 11090 c-25 -49 -26 -50 -48 -35 -33 23 -45 19 -67 -25 -26 -51
-26 -55 10 -70 17 -7 30 -15 30 -17 0 -3 -25 -52 -55 -110 -64 -123 -71 -176
-32 -234 28 -43 110 -88 158 -89 34 0 37 2 43 38 9 57 8 59 -23 65 -35 7 -61
32 -61 58 0 15 81 191 95 207 2 2 26 -9 55 -23 29 -14 53 -25 55 -23 8 9 46
90 43 93 -2 1 -23 13 -48 25 -25 12 -46 24 -48 25 -2 2 9 26 23 55 14 29 25
53 23 55 -10 8 -109 55 -117 55 -6 0 -22 -23 -36 -50z"/>
<path d="M3468 11116 c-193 -52 -261 -263 -133 -414 33 -40 68 -59 134 -73 96
-20 238 37 295 119 14 21 26 44 26 50 0 7 -21 22 -47 33 l-47 20 -18 -23 c-10
-13 -18 -26 -18 -30 0 -3 -25 -19 -55 -33 -61 -30 -106 -29 -146 4 l-23 19 39
19 c22 11 97 46 167 78 l127 57 -14 37 c-22 53 -104 126 -159 140 -55 13 -68
13 -128 -3z m119 -121 c13 -9 23 -20 23 -25 0 -9 -141 -79 -190 -95 -18 -6
-20 -2 -20 32 0 87 110 138 187 88z"/>
<path d="M2966 10855 c-53 -19 -106 -64 -132 -113 -21 -39 -23 -40 -35 -21
-14 19 -15 19 -71 -16 l-57 -36 126 -202 c70 -111 128 -204 129 -205 3 -5 114
67 114 74 0 3 -31 57 -69 119 -38 62 -71 125 -75 140 -10 41 21 96 68 119 39
19 40 19 75 0 30 -17 97 -110 180 -253 7 -11 21 -7 69 23 l61 37 -76 122 c-89
142 -123 183 -178 208 -47 22 -76 23 -129 4z"/>
<path d="M7769 10790 c-1 -22 -2 -46 -3 -52 -1 -8 16 -15 39 -19 53 -7 111
-36 135 -67 21 -26 27 -87 10 -97 -6 -4 -39 11 -73 34 -64 41 -134 71 -169 71
-67 0 -128 -67 -128 -142 0 -89 110 -184 204 -176 42 3 43 3 29 -19 -13 -20
-11 -23 29 -50 24 -16 48 -33 55 -36 12 -8 152 197 186 272 25 56 19 127 -14
176 -47 68 -184 144 -261 145 -37 0 -38 -1 -39 -40z m73 -276 c56 -34 58 -37
45 -58 -22 -33 -58 -47 -97 -36 -68 19 -101 78 -64 114 24 24 51 19 116 -20z"/>
<path d="M2378 10724 c-55 -29 -66 -99 -22 -133 36 -29 68 -26 106 7 41 38 43
85 4 119 -31 27 -50 28 -88 7z"/>
<path d="M8195 10434 c-110 -140 -201 -259 -203 -263 -1 -5 22 -26 51 -49 l54
-41 151 192 c82 106 175 224 205 263 l55 71 -53 41 c-29 23 -55 42 -57 42 -2
0 -93 -115 -203 -256z"/>
<path d="M2502 10539 c-29 -22 -52 -43 -52 -46 0 -11 284 -373 292 -373 6 0
32 18 59 39 l49 39 -141 183 c-77 101 -144 188 -148 192 -4 4 -31 -11 -59 -34z"/>
<path d="M2272 10357 l-42 -43 22 -22 22 -22 -32 0 c-142 0 -256 -186 -198
-324 38 -90 139 -153 232 -143 97 10 191 83 214 166 6 23 13 41 16 41 14 0 44
-71 44 -104 0 -35 -7 -46 -54 -92 -36 -35 -69 -57 -98 -65 -23 -7 -46 -15 -51
-19 -4 -4 -2 -30 5 -59 11 -51 12 -52 42 -45 60 13 132 58 197 123 54 53 70
78 83 121 29 96 5 157 -111 282 -149 161 -234 248 -241 248 -4 0 -27 -19 -50
-43z m104 -211 c27 -27 34 -42 34 -72 0 -75 -59 -137 -130 -137 -49 0 -86 24
-107 67 -23 50 -11 96 37 140 34 30 47 36 86 36 39 0 51 -5 80 -34z"/>
<path d="M8593 10074 l-232 -206 41 -49 c23 -27 44 -49 47 -49 4 0 65 52 136
115 72 63 131 111 132 107 2 -4 -19 -77 -46 -163 l-48 -156 21 -26 21 -26 170
33 c149 29 190 35 174 23 -2 -2 -64 -56 -136 -121 l-133 -119 43 -46 c23 -25
45 -46 50 -46 4 0 110 92 237 204 l229 204 -31 40 c-17 21 -37 41 -45 44 -8 3
-109 -13 -226 -35 -116 -23 -213 -40 -215 -37 -2 2 26 99 62 215 l65 212 -36
44 c-19 24 -38 44 -42 44 -3 0 -110 -93 -238 -206z"/>
<path d="M1810 9869 c-59 -24 -120 -106 -134 -182 -6 -34 -9 -36 -27 -26 -12
6 -22 9 -23 7 -1 -2 -20 -25 -41 -51 -24 -30 -35 -51 -28 -55 6 -4 88 -70 182
-147 95 -77 176 -141 181 -143 12 -4 92 100 83 109 -4 4 -51 42 -103 84 -52
43 -103 89 -112 104 -26 38 -23 84 9 121 54 65 94 59 198 -26 33 -27 81 -66
106 -87 l46 -37 42 52 c23 28 40 55 39 59 -6 14 -224 187 -263 208 -43 23
-112 27 -155 10z"/>
<path d="M1320 9498 c-11 -18 -67 -109 -124 -203 -57 -93 -104 -171 -103 -171
1 -1 121 -74 266 -163 212 -130 267 -159 276 -149 19 20 248 399 244 402 -9 8
-89 56 -93 56 -2 0 -39 -57 -82 -127 -43 -71 -83 -136 -89 -145 -10 -16 -17
-14 -73 21 l-62 38 75 122 c41 67 75 124 75 126 0 5 -84 55 -92 55 -3 0 -39
-54 -78 -120 -40 -66 -75 -120 -78 -120 -4 0 -102 58 -111 66 -2 1 35 66 83
143 l85 140 -50 30 -50 31 -19 -32z"/>
<path d="M9210 9454 c-23 -42 -24 -46 -8 -55 38 -22 80 -64 98 -100 23 -44 24
-59 9 -93 -20 -43 -36 -38 -74 22 -45 74 -64 95 -110 126 -90 61 -205 -1 -205
-112 0 -79 59 -169 126 -194 34 -12 34 -13 14 -28 -20 -15 -20 -16 15 -68 20
-28 38 -52 40 -52 17 0 266 174 292 203 73 83 51 197 -60 315 -42 44 -93 82
-109 82 -2 0 -15 -21 -28 -46z m-46 -266 c40 -59 40 -73 0 -89 -53 -19 -124
37 -124 99 0 37 18 54 55 50 24 -2 38 -15 69 -60z"/>
<path d="M9375 8925 c-110 -58 -204 -106 -210 -108 -8 -3 42 -127 51 -127 2 0
58 27 125 60 148 73 176 76 229 23 20 -21 39 -44 41 -52 4 -10 16 -8 57 13 29
14 52 33 52 40 0 23 -49 75 -89 95 l-36 19 27 13 28 12 -32 59 c-18 32 -35 58
-38 57 -3 0 -95 -47 -205 -104z"/>
<path d="M9630 8615 c-162 -63 -299 -116 -304 -118 -6 -2 1 -32 14 -66 25 -69
18 -66 107 -40 37 11 47 11 78 -4 19 -9 35 -20 35 -24 0 -5 -26 -53 -58 -107
l-59 -99 30 -79 c17 -43 31 -77 32 -76 2 2 42 68 90 148 48 80 89 147 90 148
2 2 61 -21 131 -52 70 -31 128 -55 130 -53 1 1 -11 36 -27 77 l-29 75 -127 60
-127 60 149 57 c83 32 162 62 177 67 l28 10 -23 63 c-13 34 -28 63 -33 64 -5
1 -142 -49 -304 -111z"/>
<path d="M1074 8611 c-81 -37 -144 -142 -144 -240 0 -76 18 -120 70 -172 83
-83 200 -100 297 -43 103 60 169 226 132 333 -6 18 -16 30 -23 28 -6 -2 -28
-10 -49 -18 -37 -13 -38 -15 -32 -50 15 -85 -48 -189 -115 -189 -37 0 -40 -13
36 183 30 76 54 143 54 148 0 18 -69 39 -127 39 -35 0 -74 -8 -99 -19z m106
-106 c0 -12 -74 -201 -82 -210 -6 -6 -18 0 -34 18 -44 51 -26 149 34 181 26
14 82 22 82 11z"/>
<path d="M829 8123 c-2 -60 2 -86 16 -114 12 -26 12 -27 -16 -19 -28 8 -29 7
-45 -46 -9 -30 -14 -61 -11 -68 4 -9 382 -118 451 -130 5 0 17 29 26 66 l17
67 -81 21 c-164 44 -183 51 -210 79 -29 30 -37 74 -23 122 6 25 4 27 -41 38
-26 7 -55 14 -64 17 -15 4 -18 -1 -19 -33z"/>
<path d="M9701 8056 c-43 -16 -107 -69 -126 -107 -41 -78 -36 -204 13 -292 22
-41 67 -87 86 -87 3 0 18 19 35 43 29 42 29 43 9 56 -27 17 -58 88 -58 134 0
43 22 92 48 106 16 9 22 -5 56 -147 21 -86 40 -165 43 -174 9 -36 94 -12 159
44 124 109 86 342 -69 417 -49 24 -141 27 -196 7z m195 -150 c55 -55 47 -152
-15 -185 -17 -10 -21 -2 -45 94 -14 57 -26 109 -26 115 0 23 53 9 86 -24z"/>
<path d="M817 7685 c-88 -31 -131 -112 -132 -250 0 -53 5 -103 13 -121 l13
-32 50 16 c43 14 49 19 44 37 -14 50 -17 115 -6 148 14 41 53 77 84 77 18 0
19 -4 13 -52 -19 -146 -19 -158 -1 -204 21 -56 62 -84 124 -84 93 0 151 73
151 192 0 51 -5 71 -21 92 l-20 26 29 -6 c29 -6 29 -5 39 58 6 34 10 64 9 65
-4 4 -310 53 -331 53 -11 -1 -37 -7 -58 -15z m238 -170 c33 -32 35 -110 5
-143 -25 -27 -41 -28 -70 -4 -21 17 -22 23 -15 95 6 73 8 77 31 77 14 0 36
-11 49 -25z"/>
<path d="M10008 7563 c-25 -4 -28 -9 -28 -42 l0 -37 -121 -17 c-175 -24 -219
-60 -219 -179 0 -48 29 -138 45 -138 3 0 24 9 46 21 34 17 40 24 34 42 -26 84
-11 100 112 115 133 18 133 18 133 -20 0 -76 13 -87 87 -72 l29 6 -7 56 c-4
31 -7 58 -5 59 1 1 27 6 57 11 59 8 56 2 44 96 l-7 48 -59 -6 c-54 -6 -59 -5
-59 13 0 49 -11 55 -82 44z"/>
<path d="M642 7149 l3 -63 152 -55 c84 -31 153 -59 153 -62 0 -3 -70 -30 -155
-59 l-155 -52 0 -62 0 -61 161 -59 161 -59 -164 -57 -163 -56 -3 -62 c-2 -46
0 -62 10 -62 7 0 118 37 246 81 l232 82 0 67 0 67 -137 53 c-76 29 -142 56
-146 60 -4 4 56 29 135 57 l143 50 3 69 3 69 -228 84 c-125 46 -234 86 -241
89 -10 3 -12 -10 -10 -59z"/>
<path d="M10245 7115 c-51 -51 -18 -145 51 -145 49 0 74 29 74 84 0 36 -5 48
-26 65 -35 28 -69 26 -99 -4z"/>
<path d="M9831 7096 l-165 -11 3 -65 c1 -36 4 -67 7 -69 2 -2 109 2 239 9
l235 13 0 68 0 69 -77 -2 c-43 0 -152 -6 -242 -12z"/>
<path d="M9680 6772 l0 -70 138 -4 c103 -3 145 -8 168 -20 57 -31 73 -115 30
-165 l-24 -28 -160 3 -160 3 -4 -68 c-3 -37 -4 -69 -3 -71 1 -1 85 -3 187 -5
l184 -2 41 27 c81 53 108 176 59 271 l-23 47 22 0 c21 0 24 5 27 63 2 34 2 65
-1 69 -4 4 -113 10 -243 14 l-238 7 0 -71z"/>
<path d="M1062 6367 c-31 -15 -41 -25 -36 -37 4 -8 9 -29 11 -45 7 -47 -18
-61 -139 -77 l-106 -14 -6 29 c-3 16 -6 40 -6 53 0 31 -14 37 -67 29 l-45 -7
6 -57 7 -58 -32 -7 c-17 -3 -42 -6 -55 -6 -27 0 -29 -12 -17 -95 l6 -47 57 6
58 7 6 -36 c7 -37 13 -39 76 -29 34 6 35 7 32 43 l-4 37 107 13 c165 19 212
45 236 133 12 47 -3 137 -29 167 -17 19 -17 19 -60 -2z"/>
<path d="M9505 6251 c-66 -98 -94 -259 -61 -345 23 -59 82 -111 148 -130 50
-15 358 -71 423 -78 29 -3 30 -2 41 60 l11 63 -28 6 -29 5 24 19 c69 54 91
196 45 286 -62 121 -234 161 -342 80 -84 -64 -124 -206 -81 -289 l16 -31 -29
7 c-44 11 -77 40 -91 81 -16 49 5 138 47 200 l29 43 -38 31 c-22 17 -44 31
-49 31 -6 0 -22 -17 -36 -39z m426 -154 c65 -44 70 -140 11 -200 -20 -20 -40
-29 -64 -30 -85 -2 -135 53 -126 137 11 98 102 145 179 93z"/>
<path d="M752 5953 c-31 -6 -36 -23 -24 -80 6 -26 10 -49 9 -50 -1 -1 -14 -4
-28 -8 -38 -9 -69 21 -72 70 -2 39 -3 40 -47 46 -25 4 -49 4 -54 1 -5 -2 -6
-36 -4 -73 9 -122 74 -184 183 -177 l54 3 6 -34 c6 -33 7 -34 52 -27 60 8 62
10 53 50 l-8 34 67 15 c36 8 116 25 176 37 61 13 111 24 112 25 5 3 -20 120
-27 128 -3 4 -82 -8 -173 -28 -92 -19 -171 -35 -176 -35 -5 0 -12 17 -15 38
-14 76 -16 78 -84 65z"/>
<path d="M990 5623 c-46 -19 -97 -68 -123 -118 -32 -62 -30 -164 6 -237 55
-112 162 -171 268 -149 64 14 96 31 135 73 49 51 67 96 68 163 1 116 -58 221
-147 264 -52 25 -154 27 -207 4z m187 -140 c25 -17 53 -71 53 -105 0 -33 -34
-84 -67 -101 -97 -50 -184 -12 -200 85 -16 103 121 181 214 121z"/>
<path d="M9477 5443 c-9 -14 -167 -432 -167 -441 0 -9 98 -47 105 -41 2 2 29
72 60 154 31 83 59 152 61 154 5 5 134 -41 134 -48 0 -3 -23 -64 -50 -135 -27
-71 -47 -132 -44 -135 6 -6 97 -41 100 -38 1 1 23 60 49 130 26 70 51 130 55
132 12 7 120 -36 120 -48 0 -5 -25 -75 -55 -155 -31 -80 -54 -146 -53 -147 17
-13 101 -36 107 -29 20 22 168 433 157 437 -133 51 -545 207 -557 212 -10 4
-19 3 -22 -2z"/>
<path d="M1268 5116 c-62 -22 -85 -43 -104 -92 -16 -42 -16 -55 -5 -128 32
-196 27 -236 -29 -236 -58 0 -120 113 -120 217 l0 44 -57 -3 c-57 -3 -58 -3
-61 -36 -12 -118 79 -292 179 -343 101 -51 224 8 245 119 4 18 -3 83 -14 145
-23 128 -20 164 15 180 57 26 133 -90 141 -219 l5 -74 58 0 59 0 0 53 c0 108
-46 232 -114 305 -64 70 -130 92 -198 68z"/>
<path d="M9241 4872 l-30 -59 82 -43 c146 -77 184 -105 197 -144 10 -32 9 -42
-10 -80 -24 -51 -61 -70 -109 -56 -16 4 -78 35 -139 69 -61 34 -114 61 -119
61 -5 0 -23 -26 -41 -59 l-32 -58 133 -71 c159 -86 176 -92 233 -92 103 0 187
95 188 212 1 32 2 58 4 58 2 0 12 -5 22 -10 17 -9 23 -4 47 42 15 29 29 56 31
59 3 8 -401 229 -417 229 -6 0 -24 -26 -40 -58z"/>
<path d="M1735 4498 c-2 -7 -23 -78 -46 -158 -23 -80 -45 -149 -49 -153 -4 -4
-61 1 -127 13 -66 11 -128 20 -137 20 -12 0 -4 -17 30 -64 26 -36 52 -67 58
-69 6 -2 66 -15 134 -28 67 -12 122 -26 122 -29 0 -3 -65 -52 -145 -109 -80
-56 -145 -106 -145 -109 0 -4 18 -31 39 -60 l38 -52 271 194 272 193 -41 57
c-26 37 -45 54 -52 49 -7 -5 -30 -20 -52 -35 -33 -23 -47 -26 -82 -21 -24 3
-43 11 -43 18 0 6 14 60 30 119 l30 107 -46 65 c-25 35 -48 64 -50 64 -3 0 -7
-6 -9 -12z"/>
<path d="M8966 4350 c-58 -18 -136 -117 -136 -173 0 -21 7 -26 50 -34 43 -9
50 -8 50 6 1 28 35 64 63 64 25 0 196 -110 197 -126 0 -5 -14 -29 -32 -53 -35
-49 -36 -47 33 -88 26 -15 27 -15 58 29 18 25 36 45 40 45 4 0 27 -13 49 -30
l41 -30 24 33 c14 17 32 44 41 58 17 27 16 27 -17 48 -54 33 -62 46 -43 73 22
31 21 34 -25 65 l-40 27 -23 -29 -23 -29 -79 56 c-125 87 -171 105 -228 88z"/>
<path d="M8738 4086 c-20 -23 -38 -46 -40 -52 -2 -6 40 -48 92 -93 110 -94
130 -121 130 -174 0 -31 -7 -46 -34 -73 -57 -57 -86 -47 -232 81 -53 47 -100
85 -105 85 -14 0 -92 -101 -83 -109 93 -83 240 -204 266 -217 50 -26 116 -23
170 9 53 31 104 101 113 157 l7 40 85 -76 86 -77 43 49 c24 27 43 52 44 56 0
8 -490 438 -499 437 -3 0 -23 -20 -43 -43z"/>
<path d="M1997 3974 c-3 -3 -4 -11 -2 -17 2 -7 9 -31 15 -54 10 -39 13 -43 43
-43 44 0 90 -31 110 -73 21 -43 21 -70 2 -106 -41 -81 -141 -108 -204 -55 -33
27 -52 77 -44 116 4 21 -1 26 -52 42 -31 10 -59 15 -62 12 -3 -3 -8 -27 -11
-54 -8 -93 74 -214 174 -257 156 -67 338 52 338 220 0 144 -119 275 -250 275
-28 0 -53 -3 -57 -6z"/>
<path d="M2341 3535 c-54 -64 -106 -131 -115 -149 -22 -46 -20 -119 3 -164 37
-72 153 -158 237 -176 30 -7 32 -6 43 38 15 62 16 61 -31 73 -54 15 -124 74
-133 112 -4 18 -1 40 7 55 l14 26 59 -51 c77 -65 130 -92 181 -92 77 0 143 76
130 151 -12 79 -112 172 -183 172 -35 0 -41 8 -20 29 10 10 3 20 -33 51 -25
22 -48 40 -52 40 -4 0 -52 -52 -107 -115z m216 -95 c60 -36 70 -103 17 -116
-32 -8 -57 3 -113 52 l-44 38 27 23 c33 28 71 29 113 3z"/>
<path d="M8304 3611 c-57 -26 -113 -87 -127 -138 -10 -40 -12 -41 -29 -26 -16
15 -21 13 -63 -21 -25 -21 -45 -42 -45 -47 0 -10 296 -352 309 -357 3 -1 29
18 56 42 l50 44 -21 23 c-174 200 -174 200 -174 249 0 41 27 80 67 96 52 22
85 1 188 -119 50 -58 95 -106 100 -106 6 0 31 19 57 43 l47 44 -109 125 c-145
166 -204 194 -306 148z"/>
<path d="M2786 3294 c-4 -19 -10 -42 -13 -50 -3 -8 1 -14 10 -14 26 0 67 -40
67 -66 0 -14 -27 -63 -62 -114 l-61 -89 -49 36 c-54 39 -52 40 -92 -29 -16
-26 -16 -27 29 -59 25 -18 45 -35 45 -39 0 -4 -13 -24 -30 -46 -16 -21 -30
-42 -30 -45 0 -6 105 -79 114 -79 2 0 14 15 25 33 42 66 37 62 65 44 14 -9 30
-17 35 -17 10 0 61 68 61 80 0 3 -13 14 -30 23 l-30 18 55 77 c77 106 95 144
95 194 0 58 -36 110 -103 148 -71 41 -93 40 -101 -6z"/>
<path d="M7940 3301 c-93 -29 -197 -108 -229 -174 -34 -71 -22 -131 35 -176
39 -31 92 -27 191 15 94 39 126 41 131 8 4 -31 -70 -91 -136 -110 l-53 -16 7
-36 c12 -72 11 -71 52 -60 183 50 296 194 238 306 -40 77 -106 84 -238 27 -47
-21 -94 -35 -102 -32 -23 9 -19 50 7 75 30 29 126 72 160 72 29 0 33 15 21 79
-5 26 -11 31 -33 30 -14 0 -37 -4 -51 -8z"/>
<path d="M7527 3050 c-27 -15 -53 -32 -59 -38 -7 -7 27 -76 107 -216 65 -114
121 -205 124 -204 37 17 111 63 111 69 0 5 -225 404 -234 415 0 1 -23 -11 -49
-26z"/>
<path d="M3135 3061 c-101 -25 -156 -122 -125 -217 9 -25 44 -69 111 -135 112
-111 121 -136 61 -168 -46 -24 -149 27 -207 103 -15 20 -31 36 -35 36 -4 0
-27 -17 -51 -39 l-43 -38 59 -60 c115 -114 262 -161 360 -113 86 41 121 151
74 230 -11 19 -58 72 -105 117 -67 65 -84 87 -84 110 0 109 181 42 280 -104
l15 -22 47 35 c57 43 56 48 -33 137 -92 92 -238 150 -324 128z"/>
<path d="M7219 2893 c-34 -18 -63 -42 -78 -66 -22 -33 -26 -36 -34 -20 -6 10
-11 19 -12 21 -3 4 -115 -47 -115 -54 0 -3 30 -70 66 -148 85 -186 125 -226
223 -226 90 0 218 66 269 138 l21 29 -40 32 -40 33 -48 -45 c-76 -71 -145 -84
-191 -35 l-20 22 92 46 c113 55 151 97 151 164 0 118 -120 171 -244 109z m108
-113 c17 -35 0 -57 -73 -97 -54 -29 -60 -31 -71 -16 -7 9 -13 28 -13 41 0 80
125 137 157 72z"/>
<path d="M3731 2460 c-63 -171 -112 -312 -110 -313 10 -8 122 -47 125 -44 2 2
53 136 113 298 60 162 112 301 116 310 4 11 -9 20 -57 37 -35 12 -65 22 -68
22 -3 0 -56 -140 -119 -310z"/>
<path d="M6784 2716 c-178 -41 -261 -141 -208 -252 29 -61 90 -75 234 -55 73
11 92 5 88 -27 -4 -38 -55 -63 -141 -71 l-72 -6 -6 -49 c-6 -58 -2 -61 85 -53
112 11 219 64 251 127 20 39 19 105 -2 141 -33 55 -90 68 -213 48 -80 -13
-112 -6 -108 23 2 11 14 29 28 39 32 24 131 42 180 34 l37 -6 6 52 c4 29 4 55
2 57 -11 12 -106 10 -161 -2z"/>
<path d="M4060 2610 c-11 -38 -54 -179 -95 -312 -41 -134 -71 -246 -67 -249
10 -7 123 -41 126 -37 1 2 46 145 98 318 l96 315 -52 17 c-82 27 -83 26 -106
-52z"/>
<path d="M5752 2673 l-43 -4 6 -47 c3 -26 21 -213 40 -415 18 -203 36 -371 39
-374 2 -3 32 -2 65 2 l61 7 -5 36 c-5 31 -75 781 -75 797 0 5 -8 5 -88 -2z"/>
<path d="M4266 2379 c-26 -127 -45 -233 -42 -236 9 -9 126 -31 130 -24 2 3 14
56 26 116 28 147 37 171 67 195 35 27 102 27 137 -1 22 -17 26 -28 26 -72 -1
-29 -12 -104 -25 -167 -13 -63 -22 -116 -21 -117 1 -1 32 -9 68 -16 l65 -14
27 127 c45 216 45 261 -6 325 -46 59 -159 89 -235 62 -42 -14 -43 -14 -43 8 0
20 -8 25 -50 34 -28 6 -57 11 -64 11 -9 0 -28 -74 -60 -231z"/>
<path d="M6222 2560 c-53 -24 -60 -41 -31 -82 12 -18 23 -34 24 -36 1 -1 19 5
39 13 61 26 79 7 106 -107 11 -51 23 -100 26 -109 3 -13 -8 -19 -56 -29 -48
-10 -59 -16 -56 -29 3 -9 8 -33 12 -53 7 -41 3 -40 91 -18 31 8 33 7 42 -28 5
-21 11 -46 13 -57 2 -11 7 -19 11 -19 4 1 35 7 68 13 l61 12 -6 37 c-3 20 -9
47 -12 59 -5 19 -1 23 30 28 20 4 36 9 36 11 0 1 -5 25 -11 52 l-10 50 -38 -5
-37 -5 -27 120 c-29 126 -48 161 -97 187 -40 21 -126 18 -178 -5z"/>
<path d="M7794 2566 c-65 -29 -67 -123 -2 -145 85 -30 156 72 93 134 -27 28
-46 30 -91 11z"/>
<path d="M5166 2417 c-4 -40 -7 -90 -9 -112 l-2 -40 -45 0 c-25 0 -91 3 -147
7 l-103 7 0 -58 0 -59 98 -6 c53 -4 117 -9 142 -12 l45 -5 -3 -81 -4 -80 -131
8 c-73 4 -148 8 -167 8 l-35 1 -3 -57 c-3 -53 -1 -58 18 -58 11 0 115 -7 232
-15 116 -9 213 -13 216 -10 7 6 47 613 41 618 -2 2 -34 7 -71 10 l-66 6 -6
-72z"/>
</g>
</svg>
